<mxfile host="app.diagrams.net" modified="2023-04-26T10:39:29.118Z" agent="Mozilla/5.0 (X11; Linux x86_64) AppleWebKit/537.36 (KHTML, like Gecko) Chrome/110.0.0.0 Safari/537.36" version="21.2.2" etag="bVGquZj8RzLkwsR1f-ij" type="github">
  <diagram name="第 1 页" id="H1Atj6ca8wedOSm3e0fF">
    <mxGraphModel>
      <root>
        <mxCell id="0" />
        <mxCell id="1" parent="0" />
      </root>
    </mxGraphModel>
  </diagram>
</mxfile>
